<mxfile host="app.diagrams.net" modified="2022-08-04T16:35:53.962Z" agent="5.0 (Macintosh; Intel Mac OS X 10_15_7) AppleWebKit/537.36 (KHTML, like Gecko) Chrome/103.0.0.0 Safari/537.36" etag="SfRHIJb_CmbIkdIdkguz" version="20.2.3" type="github">
  <diagram id="prtHgNgQTEPvFCAcTncT" name="Page-1">
    <mxGraphModel dx="946" dy="557" grid="1" gridSize="10" guides="1" tooltips="1" connect="1" arrows="1" fold="1" page="1" pageScale="1" pageWidth="827" pageHeight="1169" math="0" shadow="0">
      <root>
        <mxCell id="0" />
        <mxCell id="1" parent="0" />
        <mxCell id="V0ElHBa1jcbx36eBBBi3-1" value="ログイン画面&lt;br&gt;" style="rounded=0;whiteSpace=wrap;html=1;" vertex="1" parent="1">
          <mxGeometry x="120" y="60" width="230" height="180" as="geometry" />
        </mxCell>
        <mxCell id="V0ElHBa1jcbx36eBBBi3-2" value="トップページ" style="whiteSpace=wrap;html=1;aspect=fixed;" vertex="1" parent="1">
          <mxGeometry x="120" y="330" width="230" height="230" as="geometry" />
        </mxCell>
        <mxCell id="V0ElHBa1jcbx36eBBBi3-4" value="" style="endArrow=classic;html=1;rounded=0;entryX=0.5;entryY=0;entryDx=0;entryDy=0;exitX=0.5;exitY=1;exitDx=0;exitDy=0;" edge="1" parent="1" source="V0ElHBa1jcbx36eBBBi3-1" target="V0ElHBa1jcbx36eBBBi3-2">
          <mxGeometry width="50" height="50" relative="1" as="geometry">
            <mxPoint x="200" y="310" as="sourcePoint" />
            <mxPoint x="250" y="260" as="targetPoint" />
          </mxGeometry>
        </mxCell>
        <mxCell id="V0ElHBa1jcbx36eBBBi3-5" value="本の検索欄" style="ellipse;whiteSpace=wrap;html=1;" vertex="1" parent="1">
          <mxGeometry x="160" y="350" width="150" height="30" as="geometry" />
        </mxCell>
        <mxCell id="V0ElHBa1jcbx36eBBBi3-6" value="詳細ページ(発売履歴表示等)" style="rounded=0;whiteSpace=wrap;html=1;" vertex="1" parent="1">
          <mxGeometry x="480" y="335" width="260" height="225" as="geometry" />
        </mxCell>
        <mxCell id="V0ElHBa1jcbx36eBBBi3-7" value="" style="endArrow=classic;html=1;rounded=0;exitX=1;exitY=0.5;exitDx=0;exitDy=0;entryX=0;entryY=0.5;entryDx=0;entryDy=0;" edge="1" parent="1" source="V0ElHBa1jcbx36eBBBi3-2" target="V0ElHBa1jcbx36eBBBi3-6">
          <mxGeometry width="50" height="50" relative="1" as="geometry">
            <mxPoint x="390" y="470" as="sourcePoint" />
            <mxPoint x="440" y="420" as="targetPoint" />
          </mxGeometry>
        </mxCell>
      </root>
    </mxGraphModel>
  </diagram>
</mxfile>
